<svg width="50" height="50" viewBox="0 0 50 50" fill="none" xmlns="http://www.w3.org/2000/svg">
<path fill-rule="evenodd" clip-rule="evenodd" d="M25 12C21.47 12 21.027 12.015 19.64 12.078C18.256 12.141 17.311 12.361 16.484 12.682C15.6167 13.0086 14.8311 13.5205 14.182 14.182C13.5204 14.8314 13.0085 15.6174 12.682 16.485C12.361 17.311 12.142 18.256 12.078 19.64C12.015 21.027 12 21.47 12 25C12 28.53 12.015 28.973 12.078 30.36C12.141 31.744 12.361 32.689 12.682 33.515C13.015 34.37 13.459 35.095 14.182 35.818C14.8311 36.4795 15.6167 36.9914 16.484 37.318C17.311 37.638 18.256 37.858 19.64 37.922C21.027 37.985 21.47 38 25 38C28.53 38 28.973 37.985 30.36 37.922C31.744 37.859 32.689 37.639 33.515 37.318C34.3827 36.9915 35.1686 36.4796 35.818 35.818C36.4796 35.1686 36.9915 34.3826 37.318 33.515C37.638 32.689 37.858 31.744 37.922 30.36C37.985 28.973 38 28.53 38 25C38 21.47 37.985 21.027 37.922 19.64C37.859 18.256 37.639 17.311 37.317 16.485C36.9908 15.6174 36.4792 14.8315 35.818 14.182C35.1686 13.5204 34.3827 13.0085 33.515 12.682C32.689 12.362 31.744 12.142 30.36 12.078C28.973 12.015 28.53 12 25 12ZM25 14.342C28.471 14.342 28.882 14.356 30.253 14.418C31.52 14.476 32.209 14.688 32.667 14.866C33.274 15.102 33.707 15.383 34.162 15.838C34.617 16.293 34.898 16.726 35.134 17.333C35.312 17.791 35.524 18.479 35.582 19.747C35.644 21.117 35.658 21.529 35.658 25C35.658 28.471 35.644 28.882 35.582 30.253C35.524 31.521 35.312 32.209 35.134 32.667C34.9258 33.2317 34.5936 33.7425 34.162 34.162C33.7426 34.5936 33.2317 34.9258 32.667 35.134C32.209 35.312 31.52 35.524 30.253 35.582C28.883 35.644 28.471 35.658 25 35.658C21.529 35.658 21.117 35.644 19.747 35.582C18.479 35.524 17.791 35.312 17.333 35.134C16.7683 34.9258 16.2574 34.5936 15.838 34.162C15.4064 33.7425 15.0743 33.2317 14.866 32.667C14.688 32.209 14.476 31.521 14.418 30.253C14.356 28.883 14.342 28.471 14.342 25C14.342 21.529 14.356 21.118 14.418 19.747C14.476 18.479 14.688 17.791 14.866 17.333C15.102 16.726 15.383 16.293 15.838 15.838C16.2575 15.4064 16.7683 15.0742 17.333 14.866C17.791 14.688 18.479 14.476 19.747 14.418C21.117 14.356 21.529 14.342 25 14.342Z" fill="black"/>
<path fill-rule="evenodd" clip-rule="evenodd" d="M25 18C23.1435 18 21.363 18.7375 20.0503 20.0503C18.7375 21.363 18 23.1435 18 25C18 26.8565 18.7375 28.637 20.0503 29.9497C21.363 31.2625 23.1435 32 25 32C26.8565 32 28.637 31.2625 29.9497 29.9497C31.2625 28.637 32 26.8565 32 25C32 23.1435 31.2625 21.363 29.9497 20.0503C28.637 18.7375 26.8565 18 25 18ZM25 29.5C23.8065 29.5 22.6619 29.0259 21.818 28.182C20.9741 27.3381 20.5 26.1935 20.5 25C20.5 23.8065 20.9741 22.6619 21.818 21.818C22.6619 20.9741 23.8065 20.5 25 20.5C26.1935 20.5 27.3381 20.9741 28.182 21.818C29.0259 22.6619 29.5 23.8065 29.5 25C29.5 26.1935 29.0259 27.3381 28.182 28.182C27.3381 29.0259 26.1935 29.5 25 29.5ZM33.7 18.1C33.7 18.3101 33.6586 18.5182 33.5782 18.7123C33.4978 18.9064 33.3799 19.0828 33.2314 19.2314C33.0828 19.3799 32.9064 19.4978 32.7123 19.5782C32.5182 19.6586 32.3101 19.7 32.1 19.7C31.8899 19.7 31.6818 19.6586 31.4877 19.5782C31.2936 19.4978 31.1172 19.3799 30.9686 19.2314C30.8201 19.0828 30.7022 18.9064 30.6218 18.7123C30.5414 18.5182 30.5 18.3101 30.5 18.1C30.5 17.6757 30.6686 17.2687 30.9686 16.9686C31.2687 16.6686 31.6757 16.5 32.1 16.5C32.5243 16.5 32.9313 16.6686 33.2314 16.9686C33.5314 17.2687 33.7 17.6757 33.7 18.1Z" fill="black"/>
</svg>
