<svg width="51" height="51" viewBox="0 0 51 51" fill="none" xmlns="http://www.w3.org/2000/svg">
<path fill-rule="evenodd" clip-rule="evenodd" d="M25.8718 3.83691C16.7543 3.83691 9.44507 10.1174 9.44507 17.7148C9.44507 22.7746 14.3851 34.8867 19.2761 41.6895C20.3351 43.2542 21.6259 44.6489 23.1045 45.8254C23.8938 46.4594 24.8612 46.831 25.8721 46.8878C26.8827 46.831 27.8504 46.4594 28.6393 45.8254C30.1156 44.6489 31.4045 43.2551 32.4617 41.691C37.3541 34.8891 42.2927 22.7799 42.2927 17.7164C42.2988 10.1179 34.9895 3.8375 25.8728 3.8375L25.8718 3.83691ZM30.6303 40.3662C29.714 41.7338 28.5967 42.9549 27.3154 43.9887C26.9099 44.3412 26.406 44.5616 25.8719 44.6204C25.3375 44.562 24.8335 44.3415 24.4281 43.9887C23.1471 42.9549 22.0294 41.7338 21.1131 40.3662C16.4855 33.9285 11.7099 22.502 11.7099 17.7139C11.7099 11.2426 18.106 6.10156 25.872 6.10156C33.638 6.10156 40.0341 11.243 40.0341 17.7139C40.0337 22.5017 35.2585 33.9287 30.6305 40.3662H30.6303Z" fill="black"/>
<path fill-rule="evenodd" clip-rule="evenodd" d="M25.8719 11.7677C23.9188 11.7677 22.0461 12.5436 20.6652 13.9245C19.2843 15.3051 18.5088 17.178 18.5088 19.1308C18.5088 21.0835 19.2843 22.9565 20.6652 24.3374C22.0462 25.718 23.9188 26.4938 25.8719 26.4938C27.8246 26.4938 29.6973 25.7179 31.0781 24.3374C32.4591 22.9564 33.235 21.0835 33.235 19.1308C33.2338 17.1784 32.4579 15.3058 31.0773 13.9252C29.6964 12.5446 27.8242 11.7684 25.8718 11.7676L25.8719 11.7677ZM25.8719 24.2296C24.5195 24.2296 23.223 23.6925 22.2666 22.7365C21.3106 21.7802 20.7735 20.4836 20.7735 19.1312C20.7735 17.7789 21.3106 16.4823 22.2666 15.5264C23.223 14.57 24.5195 14.0329 25.8719 14.0329C27.2238 14.0329 28.5208 14.57 29.4768 15.5264C30.4331 16.4823 30.9702 17.7789 30.9702 19.1312C30.9698 20.4832 30.4323 21.7798 29.4764 22.7357C28.5204 23.6921 27.2238 24.2292 25.8719 24.2296Z" fill="black"/>
</svg>
