<svg width="25" height="22" viewBox="0 0 25 22" fill="none" xmlns="http://www.w3.org/2000/svg">
<path d="M0.463979 19.9289C2.9564 21.3521 5.79302 22.067 8.66504 21.9951C12.434 21.9961 16.0537 20.5252 18.7465 17.8981C21.4395 15.2713 22.9913 11.6976 23.0692 7.94377C24.9226 5.16034 25.1628 5.07422 24.9226 4.43338C24.6824 3.79255 24.4137 3.88802 21.2543 3.07498C19.65 1.36772 17.268 0.617983 14.9703 1.09679C12.6723 1.57558 10.7917 3.21377 10.009 5.41843C7.61947 4.64523 5.69137 2.86492 4.73711 0.549634C4.57878 0.214298 4.23998 0 3.86793 0C3.49589 0 3.15709 0.214307 2.99876 0.549634C1.86444 3.00873 1.60671 5.77976 2.26861 8.40471C2.93014 11.0294 4.47192 13.3504 6.63844 14.9836C5.02773 16.5709 3.00128 17.6748 0.7901 18.1685C0.396969 18.2394 0.0888995 18.5448 0.0159988 18.9364C-0.0565516 19.3276 0.121955 19.7231 0.463979 19.9289ZM8.83796 15.3759C9.01022 15.1602 9.07991 14.8807 9.03024 14.6098C8.98056 14.3386 8.8158 14.1019 8.5785 13.9605C6.78901 12.8951 5.38954 11.286 4.5857 9.36978C3.78192 7.45356 3.61643 5.33119 4.11287 3.31454C5.576 5.56048 7.92982 7.08046 10.5856 7.49447C11.0981 7.57599 11.583 7.2371 11.6803 6.72911C11.9118 5.54404 12.5848 4.49001 13.5644 3.77837C14.544 3.06711 15.7574 2.75104 16.9611 2.89411C18.1647 3.03686 19.2698 3.62779 20.054 4.54833C20.3324 4.8737 20.5053 4.84486 22.5314 5.3614C21.2448 7.20754 21.1487 7.26486 21.1487 7.64752C21.1487 15.9978 12.8997 22.4828 3.58496 19.2978C5.62852 18.4331 7.43164 17.0874 8.83796 15.3759Z" fill="black"/>
</svg>
